<svg xmlns="http://www.w3.org/2000/svg" viewBox="0 0 2400 650"><rect width="2400" height="650" rx="40" fill="#F8FBFF"/><g transform="translate(55 55) scale(.52)"><title id="t">SIGNAL Lab symbol</title><desc id="d">Signal waveform and intelligence nodes inside an orbital arc.</desc><defs><linearGradient id="g" x1="0" y1="0" x2="1" y2="1"><stop stop-color="#20BFC1"/><stop offset="1" stop-color="#3F7CFF"/></linearGradient></defs><path d="M196 697c92 113 237 158 375 105 86-33 159-97 206-180 43-77 59-168 44-257" fill="none" stroke="#6D8EB8" stroke-width="34" stroke-linecap="round" opacity=".68"/><path d="M209 403c55-131 187-222 334-221 143 1 272 87 329 213" fill="none" stroke="#8FA6C1" stroke-width="22" stroke-linecap="round" opacity=".72"/><path d="M291 323c56-56 137-84 216-64 70 18 120 67 102 119-20 56-113 58-179 87-69 31-102 81-76 133 27 55 111 83 196 64 76-17 131-62 167-117" fill="none" stroke="url(#g)" stroke-width="72" stroke-linecap="round"/><g fill="#17324D" stroke="#20BFC1" stroke-width="18"><circle cx="351" cy="289" r="32"/><circle cx="609" cy="378" r="32"/><circle cx="373" cy="586" r="32"/><circle cx="671" cy="584" r="32"/></g><circle cx="819" cy="256" r="27" fill="#3F7CFF"/></g><text x="630" y="210" font-family="Arial,Helvetica,sans-serif" font-size="150" font-weight="800" fill="#17324D">SIGNAL <tspan fill="#2F68AD">Lab</tspan></text><text x="638" y="315" font-family="Arial,Helvetica,sans-serif" font-size="40" font-weight="700" letter-spacing="2.6" fill="#58718D">SIGNAL INTELLIGENCE FOR GLOBAL AUTOMATION AND LEARNING</text><line x1="638" y1="372" x2="2260" y2="372" stroke="#B9D2E8" stroke-width="3"/><text x="638" y="476" font-family="Arial,Helvetica,sans-serif" font-size="57" font-weight="600" fill="#314A65">We Decode Signals to Empower the Future</text></svg>